<svg viewBox="0 0 200 200" xmlns="http://www.w3.org/2000/svg">
  <defs>
    <style>
      .primary { fill: #2A3C2A; }
      .secondary { fill: #4A624A; }
      .accent { fill: #8DAA8D; }
      .text { font-family: 'Helvetica Neue', Helvetica, Arial, sans-serif; font-weight: bold; }
    </style>
  </defs>

  <!-- Icon: Stylized Coffee Bean with subtle wing elements -->
  <g transform="translate(50, 50)">
    <path d="M50 0 C 27.909 0 10 17.909 10 40 C 10 62.091 27.909 80 50 80 C 72.091 80 90 62.091 90 40 C 90 17.909 72.091 0 50 0 Z" class="secondary"/>
    <path d="M50 20 C 44.477 20 40 24.477 40 30 C 40 35.523 44.477 40 50 40 C 55.523 40 60 35.523 60 30 C 60 24.477 55.523 20 50 20 Z" class="accent"/>
    <!-- Subtle wing-like element -->
    <path d="M45 65 C 40 60 35 55 30 50 C 35 45 40 40 45 35 C 48 40 51 45 51 50 C 51 55 48 60 45 65 Z" class="accent" opacity="0.7"/>
    <path d="M55 65 C 60 60 65 55 70 50 C 65 45 60 40 55 35 C 52 40 49 45 49 50 C 49 55 52 60 55 65 Z" class="accent" opacity="0.7"/>
  </g>

  <!-- Brand Name -->
  <text x="100" y="115" dominant-baseline="middle" text-anchor="middle" class="text" font-size="20" fill="#2A3C2A">Seraphim Roast</text>
</svg>