<svg width="100" height="100" viewBox="0 0 100 100" fill="none" xmlns="http://www.w3.org/2000/svg">
  <path d="M30 85C25 85 20 80 20 75V25C20 20 25 15 30 15H70C75 15 80 20 80 25V75C80 80 75 85 70 85H30Z" fill="#4A302A"/>
  <path d="M25 80C25 80 22 77 22 75V30C22 27 25 25 28 25H72C75 25 78 27 78 30V75C78 77 75 80 75 80H25Z" fill="#B38B5D"/>
  <rect x="28" y="27" width="44" height="2" rx="1" fill="#E0B77F"/>
  <path d="M45 20 C48 15 48 10 45 7 C42 4 40 2 43 -1" stroke="#F8F1E7" stroke-width="3" stroke-linecap="round" fill="none"/>
  <path d="M55 20 C52 15 52 10 55 7 C58 4 60 2 57 -1" stroke="#F8F1E7" stroke-width="3" stroke-linecap="round" fill="none"/>
</svg>