<svg width="37" height="37" viewBox="0 0 37 37" fill="none" xmlns="http://www.w3.org/2000/svg">
<g clip-path="url(#clip0_293_138)">
<path d="M19.7091 4.07942C21.0098 4.22395 21.588 8.27082 22.7442 8.77668C23.9005 9.28254 27.2247 6.82551 28.2364 7.6927C29.3926 8.70442 27.2969 12.39 27.8028 13.5462C28.3087 14.7025 32.3555 15.6419 32.5001 17.0872C32.6446 18.6771 28.67 19.9779 28.3087 21.2064C27.9473 22.5072 30.6212 25.6868 29.754 26.9154C28.8868 28.2161 24.9122 26.6986 23.8282 27.5657C22.6719 28.4329 22.8165 32.7689 21.2989 33.2747C19.9259 33.7806 17.8301 30.1673 16.5294 30.1673C15.2286 30.1673 12.9884 33.6361 11.543 33.1302C10.0255 32.6243 10.2423 28.3607 9.08601 27.4935C7.85749 26.554 3.95515 28.1439 3.08796 26.9154C2.22077 25.6146 4.8946 22.3626 4.46101 21.1341C4.02741 19.9056 0.197336 18.6771 0.414133 17.1595C0.63093 15.6419 4.6778 14.7747 5.25593 13.5462C5.83405 12.39 3.73835 8.77668 4.82234 7.76497C5.90632 6.75325 9.3028 9.28254 10.5313 8.77668C11.7598 8.27082 12.4102 4.22395 13.7833 4.07942C15.2286 3.93489 17.1075 7.54817 18.4083 7.54817C18.4083 7.54817 18.4805 7.54817 19.7091 4.07942Z" fill="#FEDE00" stroke="#090909" stroke-width="0.5" stroke-linecap="round" stroke-linejoin="round"/>
<path d="M17.6328 24.4258C20.9055 24.4258 23.5586 21.7727 23.5586 18.5C23.5586 15.2273 20.9055 12.5742 17.6328 12.5742C14.3601 12.5742 11.707 15.2273 11.707 18.5C11.707 21.7727 14.3601 24.4258 17.6328 24.4258Z" fill="white" stroke="#090909" stroke-width="0.5" stroke-linecap="round" stroke-linejoin="round"/>
<path d="M6.7207 5.85352L4.4082 3.10742" stroke="#090909" stroke-width="0.5" stroke-linecap="round" stroke-linejoin="round"/>
<path d="M4.98633 9.32227L1.80664 7.94922" stroke="#090909" stroke-width="0.5" stroke-linecap="round" stroke-linejoin="round"/>
<path d="M3.68555 13.0801L0.794922 13.3691" stroke="#090909" stroke-width="0.5" stroke-linecap="round" stroke-linejoin="round"/>
</g>
<defs>
<clipPath id="clip0_293_138">
<rect width="37" height="37" fill="white"/>
</clipPath>
</defs>
</svg>
